<svg width="48" height="48" viewBox="0 0 48 48" fill="none" xmlns="http://www.w3.org/2000/svg">
<rect width="48" height="48" rx="24" fill="white"/>
<path d="M10 37.8701V31.633H10.6763L13.5115 36.8782L16.3318 31.633H17.0181V37.8657H16.3168V33.0536L13.747 37.8701H13.2711L10.7063 33.0536V37.8701H10Z" fill="#316DC2"/>
<path d="M28.2848 38C27.7805 38 27.3264 37.9278 26.9223 37.7834C26.5215 37.6362 26.1892 37.4283 25.9254 37.1597C25.6649 36.8912 25.4946 36.5721 25.4145 36.2025L26.1659 36.0942C26.2861 36.4985 26.5399 36.8161 26.9273 37.0471C27.3147 37.2752 27.7772 37.3893 28.3149 37.3893C28.6689 37.3893 28.9861 37.3416 29.2666 37.2464C29.5472 37.1482 29.7676 37.0096 29.9279 36.8305C30.0882 36.6515 30.1683 36.4393 30.1683 36.1938C30.1683 36.0321 30.1349 35.895 30.0681 35.7824C30.0013 35.6669 29.9128 35.5716 29.8026 35.4965C29.6924 35.4214 29.5722 35.3593 29.442 35.3103C29.3117 35.2583 29.1848 35.2164 29.0613 35.1846L27.2329 34.7125C27.0124 34.6577 26.8087 34.5884 26.6217 34.5046C26.4347 34.418 26.2711 34.3155 26.1308 34.1971C25.9939 34.0758 25.887 33.9343 25.8102 33.7726C25.7334 33.6109 25.695 33.4261 25.695 33.2182C25.695 32.8659 25.8019 32.5613 26.0156 32.3043C26.2293 32.0473 26.5215 31.8495 26.8922 31.7109C27.2629 31.5723 27.6854 31.5045 28.1596 31.5074C28.6405 31.5074 29.0696 31.581 29.447 31.7283C29.8277 31.8755 30.1416 32.0863 30.3887 32.3606C30.6359 32.6321 30.7995 32.954 30.8796 33.3265L30.1082 33.4478C30.0581 33.1764 29.9429 32.941 29.7626 32.7418C29.5822 32.5425 29.3518 32.3895 29.0713 32.2827C28.7941 32.1729 28.4885 32.1166 28.1546 32.1137C27.8306 32.1137 27.5418 32.1614 27.288 32.2567C27.0375 32.3491 26.8388 32.4761 26.6918 32.6378C26.5449 32.7995 26.4714 32.9843 26.4714 33.1922C26.4714 33.403 26.5382 33.5719 26.6718 33.699C26.8087 33.8261 26.9757 33.9257 27.1727 33.9979C27.3731 34.0701 27.5668 34.1292 27.7538 34.1754L29.1665 34.5349C29.3134 34.5696 29.4854 34.6201 29.6824 34.6865C29.8828 34.7501 30.0765 34.8425 30.2635 34.9637C30.4538 35.0821 30.6108 35.2381 30.7344 35.4315C30.8579 35.625 30.9197 35.8704 30.9197 36.1679C30.9197 36.4566 30.8529 36.715 30.7193 36.9432C30.5891 37.1713 30.4038 37.3633 30.1633 37.5192C29.9262 37.6752 29.6473 37.7935 29.3267 37.8744C29.0095 37.9581 28.6622 38 28.2848 38Z" fill="#316DC2"/>
<path fill-rule="evenodd" clip-rule="evenodd" d="M21.0087 31.633L18.5241 37.8701H19.2905L19.893 36.3584H23.0974L23.7037 37.8701H24.4701L21.9855 31.633H21.0087ZM22.8576 35.7607L21.49 32.3514L20.1312 35.7607H19.6311V36.3584H19.893L20.1312 35.7607H22.8576Z" fill="#316DC2"/>
<path d="M19.6311 35.7607V36.3584H19.893L20.1312 35.7607H19.6311Z" fill="#316DC2"/>
<path fill-rule="evenodd" clip-rule="evenodd" d="M34.5386 31.633L32.0539 37.8701H32.8204L33.4229 36.3584H36.6272L37.2336 37.8701H38L35.5154 31.633H34.5386ZM36.3875 35.7607L35.0199 32.3514L33.6611 35.7607H33.161V36.3584H33.4229L33.6611 35.7607H36.3875Z" fill="#316DC2"/>
<path d="M33.161 35.7607V36.3584H33.4229L33.6611 35.7607H33.161Z" fill="#316DC2"/>
<path d="M15.8125 15.476C15.2909 15.8535 14.9851 16.6529 15.5615 17.6087C16.1378 18.5646 24.372 25.0165 24.6739 25.1957C24.9758 25.375 25.2779 25.4048 26.0461 24.7775C26.8148 24.1502 33.2362 19.2497 33.4019 19.1023C33.6656 18.8678 33.7313 18.2958 33.4019 18.0268C33.4019 18.0268 25.6225 23.941 25.3677 24.1801C25.1132 24.4191 24.7169 24.0308 24.7913 23.5231C24.866 23.0152 24.921 22.9554 25.9091 22.1788C26.8972 21.4021 32.4993 17.0889 32.7535 16.8982C33.0414 16.6821 33.0483 16.3005 32.5768 15.963C31.9214 15.4938 24.8379 10.3763 24.601 10.1971C24.3634 10.0178 24.0345 9.85494 23.5406 10.2134C23.0466 10.5718 16.7709 14.7823 15.8125 15.476Z" fill="#316DC2"/>
<path d="M24.6739 25.8252C24.4757 25.7075 20.8629 22.8896 18.2387 20.6955V25.2702C18.2367 28.6096 27.4981 30.3938 30.5663 26.2887V21.9163C28.6815 23.3631 26.4767 25.0556 26.0461 25.407C25.2779 26.0342 24.9758 26.0044 24.6739 25.8252Z" fill="#316DC2"/>
<path d="M28.593 20.8091C28.593 20.8091 29.97 21.5124 30.068 24.3426L29.4009 24.1558L28.8671 25.3076C28.6413 22.2085 27.4116 21.7591 27.4116 21.7591L28.593 20.8091Z" fill="#98B8E6"/>
</svg>
