<svg xmlns="http://www.w3.org/2000/svg" xmlns:xlink="http://www.w3.org/1999/xlink"><defs>
<clipPath id="clip0_1608_2077">
<rect width="10" height="10" fill="white"/>
</clipPath>
</defs><symbol id="icon-angle" viewBox="0 0 26 26"><g fill="none">
<path d="M26 0C11.6406 0 0 11.6406 0 26V0H26Z" fill="white"/>
</g></symbol><symbol id="icon-button-arrow" viewBox="0 0 10 10"><g fill="none">
<g clip-path="url(#clip0_1608_2077)">
<path d="M1 9L9 1M9 1H1.05298M9 1V8.94702" stroke="white"/>
</g>

</g></symbol><symbol id="icon-checkbox" viewBox="0 0 10 8"><g fill="none">
<path d="M1 3.5L3.94737 7L9 1" stroke="#316DC2" stroke-linecap="round" stroke-linejoin="round"/>
</g></symbol><symbol id="icon-close" viewBox="0 0 20 20"><g fill="none"><path d="M.293 18.291a1 1 0 101.414 1.414L10 11.413l8.292 8.292a1 1 0 101.414-1.414l-8.292-8.292 8.292-8.292A1 1 0 1018.291.293L9.999 8.585 1.707.293A1 1 0 10.293 1.707L8.585 10 .293 18.291z"/></g></symbol><symbol id="icon-details-arrow" viewBox="0 0 12 12"><g fill="none">
<path d="M11.455 3.81836L6.00044 8.72745L0.545898 3.81836" stroke="white"/>
</g></symbol><symbol id="icon-feature-star" viewBox="0 0 22 22"><g fill="none">
<path d="M11 0L14.0138 5.47476L20 5.5L17.0275 11L20 16.5L14.0138 16.5252L11 22L7.98623 16.5252L2 16.5L4.97246 11L2 5.5L7.98623 5.47476L11 0Z" fill="white"/>
</g></symbol><symbol id="icon-logo" viewBox="0 0 52 52"><g fill="none">
<rect width="52" height="52" rx="26" fill="white"/>
<path d="M12 39.8701V33.633H12.6763L15.5115 38.8782L18.3318 33.633H19.0181V39.8657H18.3168V35.0536L15.747 39.8701H15.2711L12.7063 35.0536V39.8701H12Z" fill="#316DC2"/>
<path d="M30.2848 40C29.7805 40 29.3264 39.9278 28.9223 39.7834C28.5215 39.6362 28.1892 39.4283 27.9254 39.1597C27.6649 38.8912 27.4946 38.5721 27.4145 38.2025L28.1659 38.0942C28.2861 38.4985 28.5399 38.8161 28.9273 39.0471C29.3147 39.2752 29.7772 39.3893 30.3149 39.3893C30.6689 39.3893 30.9861 39.3416 31.2666 39.2464C31.5472 39.1482 31.7676 39.0096 31.9279 38.8305C32.0882 38.6515 32.1683 38.4393 32.1683 38.1938C32.1683 38.0321 32.1349 37.895 32.0681 37.7824C32.0013 37.6669 31.9128 37.5716 31.8026 37.4965C31.6924 37.4214 31.5722 37.3593 31.442 37.3103C31.3117 37.2583 31.1848 37.2164 31.0613 37.1846L29.2329 36.7125C29.0124 36.6577 28.8087 36.5884 28.6217 36.5046C28.4347 36.418 28.2711 36.3155 28.1308 36.1971C27.9939 36.0758 27.887 35.9343 27.8102 35.7726C27.7334 35.6109 27.695 35.4261 27.695 35.2182C27.695 34.8659 27.8019 34.5613 28.0156 34.3043C28.2293 34.0473 28.5215 33.8495 28.8922 33.7109C29.2629 33.5723 29.6854 33.5045 30.1596 33.5074C30.6405 33.5074 31.0696 33.581 31.447 33.7283C31.8277 33.8755 32.1416 34.0863 32.3887 34.3606C32.6359 34.6321 32.7995 34.954 32.8796 35.3265L32.1082 35.4478C32.0581 35.1764 31.9429 34.941 31.7626 34.7418C31.5822 34.5425 31.3518 34.3895 31.0713 34.2827C30.7941 34.1729 30.4885 34.1166 30.1546 34.1137C29.8306 34.1137 29.5418 34.1614 29.288 34.2567C29.0375 34.3491 28.8388 34.4761 28.6918 34.6378C28.5449 34.7995 28.4714 34.9843 28.4714 35.1922C28.4714 35.403 28.5382 35.5719 28.6718 35.699C28.8087 35.8261 28.9757 35.9257 29.1727 35.9979C29.3731 36.0701 29.5668 36.1292 29.7538 36.1754L31.1665 36.5349C31.3134 36.5696 31.4854 36.6201 31.6824 36.6865C31.8828 36.7501 32.0765 36.8425 32.2635 36.9637C32.4538 37.0821 32.6108 37.2381 32.7344 37.4315C32.8579 37.625 32.9197 37.8704 32.9197 38.1679C32.9197 38.4566 32.8529 38.715 32.7193 38.9432C32.5891 39.1713 32.4038 39.3633 32.1633 39.5192C31.9262 39.6751 31.6473 39.7935 31.3267 39.8744C31.0095 39.9581 30.6622 40 30.2848 40Z" fill="#316DC2"/>
<path fill-rule="evenodd" clip-rule="evenodd" d="M23.0087 33.633L20.5241 39.8701H21.2905L21.893 38.3584H25.0974L25.7037 39.8701H26.4701L23.9855 33.633H23.0087ZM24.8576 37.7607L23.49 34.3514L22.1312 37.7607H21.6311V38.3584H21.893L22.1312 37.7607H24.8576Z" fill="#316DC2"/>
<path d="M21.6311 37.7607V38.3584H21.893L22.1312 37.7607H21.6311Z" fill="#316DC2"/>
<path fill-rule="evenodd" clip-rule="evenodd" d="M36.5386 33.633L34.0539 39.8701H34.8204L35.4229 38.3584H38.6272L39.2336 39.8701H40L37.5154 33.633H36.5386ZM38.3875 37.7607L37.0199 34.3514L35.6611 37.7607H35.161V38.3584H35.4229L35.6611 37.7607H38.3875Z" fill="#316DC2"/>
<path d="M35.161 37.7607V38.3584H35.4229L35.6611 37.7607H35.161Z" fill="#316DC2"/>
<path d="M17.8125 17.476C17.2909 17.8535 16.9851 18.6529 17.5615 19.6087C18.1378 20.5646 26.372 27.0165 26.6739 27.1957C26.9758 27.375 27.2779 27.4048 28.0461 26.7775C28.8148 26.1502 35.2362 21.2497 35.4019 21.1023C35.6656 20.8678 35.7313 20.2958 35.4019 20.0268C35.4019 20.0268 27.6225 25.941 27.3677 26.1801C27.1132 26.4191 26.7169 26.0308 26.7913 25.5231C26.866 25.0152 26.921 24.9554 27.9091 24.1788C28.8972 23.4021 34.4993 19.0889 34.7535 18.8982C35.0414 18.6821 35.0483 18.3005 34.5768 17.963C33.9214 17.4938 26.8379 12.3763 26.601 12.1971C26.3634 12.0178 26.0345 11.8549 25.5406 12.2134C25.0466 12.5718 18.7709 16.7823 17.8125 17.476Z" fill="#316DC2"/>
<path d="M26.6739 27.8252C26.4757 27.7075 22.8629 24.8896 20.2387 22.6955V27.2702C20.2367 30.6096 29.4981 32.3938 32.5663 28.2887V23.9163C30.6815 25.3631 28.4767 27.0556 28.0461 27.407C27.2779 28.0342 26.9758 28.0044 26.6739 27.8252Z" fill="#316DC2"/>
<path d="M30.593 22.8091C30.593 22.8091 31.97 23.5124 32.068 26.3426L31.4009 26.1558L30.8671 27.3076C30.6413 24.2085 29.4116 23.7591 29.4116 23.7591L30.593 22.8091Z" fill="#98B8E6"/>
</g></symbol><symbol id="icon-ok" viewBox="0 0 22 22"><g fill="defaultColor">
<path d="M11 3.32798C12.3229 3.32798 13.3988 4.38262 13.3988 5.67944C13.3988 6.97235 12.3229 8.02699 11 8.02699C9.67708 8.02699 8.60121 6.97235 8.60121 5.67944C8.60121 4.38262 9.67708 3.32798 11 3.32798ZM11 11.355C14.1957 11.355 16.7938 8.8082 16.7938 5.67944C16.7938 2.54676 14.1957 0 11 0C7.80427 0 5.21023 2.54676 5.21023 5.67944C5.21023 8.8082 7.80427 11.355 11 11.355ZM13.343 15.9876C14.5225 15.722 15.6581 15.2649 16.7061 14.6204C17.499 14.1322 17.7381 13.1049 17.24 12.3276C16.738 11.5464 15.694 11.312 14.897 11.8042C12.5261 13.265 9.47386 13.265 7.09898 11.8042C6.30603 11.312 5.25805 11.5464 4.75996 12.3276C4.26188 13.1049 4.50096 14.1322 5.29391 14.6204C6.34189 15.2649 7.47753 15.722 8.657 15.9876L5.41744 19.1593C4.75598 19.8077 4.75598 20.8624 5.41744 21.5108C5.75215 21.835 6.1825 21.999 6.61683 21.999C7.05116 21.999 7.4855 21.835 7.82021 21.5108L11 18.3937L14.1838 21.5108C14.8452 22.1631 15.9171 22.1631 16.5826 21.5108C17.244 20.8624 17.244 19.8077 16.5826 19.1593L13.343 15.9876Z"/>
</g></symbol><symbol id="icon-pin" viewBox="0 0 22 22"><g fill="#316dc2">
<path fill-rule="evenodd" clip-rule="evenodd" d="M7.03617 1.03045C9.53316 -0.365998 12.6024 -0.34159 15.0759 1.09438C17.5252 2.55961 19.0138 5.17459 18.9999 7.98759C18.9429 10.7821 17.3467 13.409 15.3515 15.4397C14.1999 16.617 12.9116 17.6581 11.513 18.5416C11.369 18.6218 11.2112 18.6755 11.0475 18.7C10.8899 18.6935 10.7364 18.6487 10.6009 18.5696C8.46566 17.242 6.5924 15.5474 5.07125 13.5674C3.79839 11.9145 3.07524 9.91761 3 7.84786C2.99835 5.02947 4.53917 2.4269 7.03617 1.03045ZM8.47908 9.01426C8.8991 10.0109 9.89053 10.661 10.9905 10.661C11.711 10.666 12.4037 10.3882 12.9141 9.88952C13.4246 9.39084 13.7103 8.7127 13.7078 8.00622C13.7116 6.92784 13.052 5.95355 12.0369 5.53825C11.0218 5.12296 9.85152 5.34858 9.0724 6.10978C8.29328 6.87098 8.05905 8.0176 8.47908 9.01426Z"/>
<path d="M16.7144 20.9C16.7144 21.5075 14.156 22 11 22C7.84411 22 5.28573 21.5075 5.28573 20.9C5.28573 20.2925 7.84411 19.8 11 19.8C14.156 19.8 16.7144 20.2925 16.7144 20.9Z"/>
</g></symbol><symbol id="icon-reddit" viewBox="0 0 22 22"><g fill="defaultColor">
<path d="M12.9453 0.5C12.304 0.5 11.7021 0.84161 11.3161 1.33425C10.9301 1.82688 10.7173 2.4274 10.5623 3.06027C10.3161 4.07791 10.2401 5.20702 10.2219 6.22466C8.41944 6.35051 6.78722 6.91147 5.43159 7.77808C4.88143 7.29264 4.21882 7.02295 3.58356 7.03014C2.86015 7.03733 2.17322 7.36455 1.66258 8.03699C0.686888 9.32072 0.799351 11.4207 1.93005 12.6685C1.86015 13.0533 1.80847 13.4488 1.80847 13.8479C1.80847 18.0767 5.92399 21.5 11 21.5C16.076 21.5 20.1915 18.0731 20.1915 13.8479C20.1915 13.4488 20.1399 13.0533 20.0699 12.6685C21.2006 11.4207 21.3131 9.32072 20.3374 8.03699C19.8268 7.36455 19.1399 7.03733 18.4164 7.03014C17.7812 7.02295 17.1186 7.29264 16.5684 7.77808C15.2189 6.91507 13.5958 6.35411 11.8024 6.22466C11.8268 5.28613 11.8906 4.31164 12.0699 3.57808C12.1824 3.11781 12.3161 2.78339 12.459 2.6C12.6018 2.41661 12.7052 2.3411 12.9453 2.3411C13.4651 2.3411 13.5319 2.51729 13.845 2.94521C14.0031 3.16096 14.1854 3.43065 14.4772 3.69315C14.769 3.95565 15.2006 4.18219 15.6687 4.18219V2.3411C15.538 2.3411 15.5137 2.3375 15.4256 2.25479C15.3374 2.17209 15.2158 1.98151 15.0365 1.73699C14.6778 1.24435 13.9818 0.5 12.9453 0.5ZM18.0031 0.672603C16.7933 0.672603 15.8146 1.83048 15.8146 3.26164C15.8146 4.69281 16.7933 5.85069 18.0031 5.85069C19.2128 5.85069 20.1915 4.69281 20.1915 3.26164C20.1915 1.83048 19.2128 0.672603 18.0031 0.672603ZM18.0031 1.59315C18.7812 1.59315 19.4134 2.3411 19.4134 3.26164C19.4134 4.18219 18.7812 4.93014 18.0031 4.93014C17.225 4.93014 16.5927 4.18219 16.5927 3.26164C16.5927 2.3411 17.225 1.59315 18.0031 1.59315ZM11 7.66301C15.307 7.66301 18.9514 10.5002 18.9514 13.8479C18.9514 17.1993 15.307 20.0329 11 20.0329C6.69299 20.0329 3.0486 17.1993 3.0486 13.8479C3.0486 10.5002 6.69299 7.66301 11 7.66301ZM3.60787 8.49726C3.82368 8.50086 4.0486 8.55839 4.26441 8.66986C3.48325 9.37106 2.86319 10.1765 2.44069 11.0863C2.1489 10.3743 2.22793 9.48613 2.58659 9.01507C2.84799 8.66986 3.20969 8.49366 3.60787 8.49726ZM18.3921 8.49726C18.7903 8.49366 19.152 8.66986 19.4134 9.01507C19.7721 9.48613 19.8511 10.3743 19.5593 11.0863C19.1368 10.1765 18.5167 9.37106 17.7356 8.66986C17.9514 8.55839 18.1763 8.50086 18.3921 8.49726ZM7.88753 10.7986C7.10941 10.7986 6.47719 11.5466 6.47719 12.4671C6.47719 13.3877 7.10941 14.1356 7.88753 14.1356C8.66564 14.1356 9.29786 13.3877 9.29786 12.4671C9.29786 11.5466 8.66564 10.7986 7.88753 10.7986ZM14.1125 10.7986C13.3344 10.7986 12.7021 11.5466 12.7021 12.4671C12.7021 13.3877 13.3344 14.1356 14.1125 14.1356C14.8906 14.1356 15.5228 13.3877 15.5228 12.4671C15.5228 11.5466 14.8906 10.7986 14.1125 10.7986ZM7.13372 16.4658C7.62917 17.6776 9.16109 18.8534 11 18.8534C12.8389 18.8534 14.3952 17.6776 14.8906 16.4658C13.9909 17.1526 12.5714 17.6164 11 17.6164C9.42857 17.6164 8.03342 17.1526 7.13372 16.4658Z"/>
</g></symbol><symbol id="icon-select-arrow" viewBox="0 0 16 16"><g fill="none">
<path d="M15.273 5.09082L8.00027 11.6363L0.727539 5.09082" stroke="white"/>
</g></symbol><symbol id="icon-slider-arrow" viewBox="0 0 11 12"><g fill="none">
<path d="M11 5.6875H1M1 5.6875L5.96689 11M1 5.6875L5.96689 1"/>
</g></symbol><symbol id="icon-vk" viewBox="0 0 22 22"><g fill="defaultColor">
<path d="M21.8039 15.7032C21.7448 15.6086 21.379 14.8488 19.6189 13.2871C17.7762 11.6518 18.0238 11.9173 20.2432 9.0897C21.5949 7.36763 22.1353 6.31598 21.9662 5.86641C21.8053 5.43786 20.8111 5.55091 20.8111 5.55091L17.5053 5.56932C17.5053 5.56932 17.2606 5.53777 17.0777 5.64162C16.9003 5.74415 16.7862 5.98077 16.7862 5.98077C16.7862 5.98077 16.2623 7.31373 15.5637 8.44688C14.091 10.8381 13.501 10.9643 13.2604 10.8157C12.7007 10.47 12.841 9.42491 12.841 8.6835C12.841 6.36594 13.2082 5.39974 12.1246 5.14997C11.7643 5.06715 11.5003 5.01194 10.5803 5.00274C9.4005 4.99091 8.4008 5.00668 7.83563 5.27091C7.45885 5.44706 7.16871 5.84011 7.3461 5.86246C7.56474 5.89007 8.05977 5.98997 8.32242 6.33176C8.66207 6.77214 8.64969 7.76331 8.64969 7.76331C8.64969 7.76331 8.84496 10.491 8.19453 10.8302C7.74763 11.0629 7.13571 10.5883 5.82248 8.41796C5.15006 7.30716 4.64127 6.07805 4.64127 6.07805C4.64127 6.07805 4.54364 5.84932 4.369 5.72706C4.15724 5.57852 3.86022 5.53119 3.86022 5.53119L0.716735 5.5496C0.716735 5.5496 0.245075 5.56274 0.0718122 5.75861C-0.0821991 5.93345 0.0594363 6.29364 0.0594363 6.29364C0.0594363 6.29364 2.52087 11.7977 5.30682 14.5727C7.86313 17.1164 10.7646 16.9494 10.7646 16.9494H12.0792C12.0792 16.9494 12.4766 16.9074 12.6787 16.6984C12.8658 16.5064 12.8589 16.1463 12.8589 16.1463C12.8589 16.1463 12.8327 14.4597 13.6523 14.2112C14.4595 13.9667 15.4963 15.8413 16.595 16.563C17.4256 17.1085 18.0568 16.9889 18.0568 16.9889L20.9953 16.9494C20.9953 16.9494 22.5327 16.8587 21.8039 15.7032Z"/>
</g></symbol></svg>